# xmcd
#
# Track frame offsets: 
#        150
#        21715
#        49087
#        74260
#        101016
#        126360
#        136949
#        175407
#
# Disc length: 2782 seconds
#
# Revision: 0
# Processed by: cddbd v1.4PL0 Copyright (c) Steve Scherf et al.
# Submitted via: ExactAudioCopy v0.90b4
#
DISCID=770adc08
DTITLE=Fresco Padre - Farz
DYEAR=1998
DGENRE=Electronic
TTITLE0=Jumpback, Big Dave!
TTITLE1=R.P.S.
TTITLE2=Francesca
TTITLE3=Two For Two
TTITLE4=Blues For Tony
TTITLE5=King Eddies Good Time Shuffle
TTITLE6=Fresco Padre(Cool Papa)
TTITLE7=Night,Night
EXTD=
EXTT0=
EXTT1=
EXTT2=
EXTT3=
EXTT4=
EXTT5=
EXTT6=
EXTT7=
PLAYORDER=
